<svg width="17" height="16" viewBox="0 0 17 16" fill="none" xmlns="http://www.w3.org/2000/svg">
<path d="M14.4532 6.9059C14.7068 7.21495 14.8336 7.36947 14.9092 7.63781C14.9644 7.83338 14.9644 8.16597 14.9092 8.36154C14.8336 8.62988 14.7068 8.7844 14.4532 9.09345C13.3215 10.4728 11.1249 12.6663 8.60055 12.6663C6.07622 12.6663 3.87958 10.4728 2.74787 9.09345C2.4943 8.7844 2.36752 8.62988 2.29185 8.36154C2.2367 8.16597 2.2367 7.83338 2.29185 7.63781C2.36752 7.36947 2.4943 7.21495 2.74787 6.9059C3.87958 5.52659 6.07622 3.33301 8.60055 3.33301C11.1249 3.33301 13.3215 5.52659 14.4532 6.9059Z" stroke="black" stroke-width="1.33333" stroke-linecap="round" stroke-linejoin="round"/>
<path d="M9.93388 7.99967C9.93388 7.26329 9.33693 6.66634 8.60055 6.66634C7.86417 6.66634 7.26722 7.26329 7.26722 7.99967C7.26722 8.73605 7.86417 9.33301 8.60055 9.33301C9.33693 9.33301 9.93388 8.73605 9.93388 7.99967Z" stroke="black" stroke-width="1.33333" stroke-linecap="round" stroke-linejoin="round"/>
</svg>
