<svg width="24" height="24" viewBox="0 0 24 24" fill="none" xmlns="http://www.w3.org/2000/svg">
<path d="M12 22C17.5228 22 22 17.5228 22 12C22 6.47715 17.5228 2 12 2C6.47715 2 2 6.47715 2 12C2 17.5228 6.47715 22 12 22Z" stroke="currentColor" stroke-width="2" stroke-linecap="round" stroke-linejoin="round"/>
<path d="M9.09 9C9.3251 8.33169 9.78921 7.76813 10.4016 7.37057C11.014 6.97301 11.7451 6.75011 12.5 6.75C13.2549 6.75011 13.986 6.97301 14.5984 7.37057C15.2108 7.76813 15.6749 8.33169 15.909 9C16.1431 9.66831 16.1431 10.3317 15.909 11C15.6749 11.6683 15.2108 12.2319 14.5984 12.6294C13.986 13.027 13.2549 13.2499 12.5 13.25C11.7451 13.2499 11.014 13.027 10.4016 12.6294C9.78921 12.2319 9.3251 11.6683 9.09 11" stroke="currentColor" stroke-width="2" stroke-linecap="round" stroke-linejoin="round"/>
<path d="M12 17V17.01" stroke="currentColor" stroke-width="2" stroke-linecap="round" stroke-linejoin="round"/>
</svg>
