<svg width="25" height="25" viewBox="0 0 25 25" fill="none" xmlns="http://www.w3.org/2000/svg">
<path d="M14.2015 22.5515H10.2015M13.2015 2.55151L11.2015 2.55151M6.20147 9.55151V10.5515C6.20147 11.333 6.20147 11.7858 6.23811 12.1412L5.26913 13.3745C3.96497 15.0343 3.31289 15.8642 3.31642 16.5616C3.31949 17.1682 3.59771 17.7407 4.07281 18.1179C4.619 18.5515 5.67445 18.5515 7.78535 18.5515L16.6176 18.5515C18.7285 18.5515 19.7839 18.5515 20.3301 18.1179C20.8052 17.7407 21.0834 17.1682 21.0865 16.5616C21.09 15.8642 20.438 15.0343 19.1338 13.3745L18.1648 12.1412C18.2015 11.7858 18.2015 11.333 18.2015 10.5515V9.55151C18.2015 8.62251 18.2015 8.158 18.1399 7.76934C17.8011 5.62988 16.1231 3.95193 13.9836 3.61307C13.595 3.55151 13.1305 3.55151 12.2015 3.55151C11.2725 3.55151 10.808 3.55151 10.4193 3.61307C8.27983 3.95193 6.60188 5.62988 6.26303 7.76934C6.20147 8.158 6.20147 8.62251 6.20147 9.55151Z" stroke="#006BC2" stroke-width="2" stroke-linecap="round" stroke-linejoin="round"/>
</svg>
