<svg width="24" height="24" viewBox="0 0 24 24" fill="none" xmlns="http://www.w3.org/2000/svg">
<path d="M9.16094 4.51858L9.51595 5.45344C9.79669 5.34682 10.0147 5.11969 10.1096 4.8348L9.16094 4.51858ZM6.94347 5.80074L6.74299 6.78044C7.0374 6.84068 7.34329 6.76534 7.57603 6.57525L6.94347 5.80074ZM4.10241 10.7194L5.08971 10.8782C5.13735 10.5822 5.04958 10.2803 4.85061 10.0559L4.10241 10.7194ZM4.10241 13.2806L4.85061 13.9441C5.04958 13.7197 5.13735 13.4178 5.08971 13.1218L4.10241 13.2806ZM6.94347 18.1993L7.57603 17.4247C7.34329 17.2347 7.0374 17.1593 6.74299 17.2196L6.94347 18.1993ZM9.16094 19.4814L10.1096 19.1652C10.0147 18.8803 9.79669 18.6532 9.51595 18.5466L9.16094 19.4814ZM14.84 19.4814L14.485 18.5466C14.2042 18.6532 13.9863 18.8803 13.8913 19.1652L14.84 19.4814ZM17.0573 18.1994L17.2578 17.2197C16.9634 17.1594 16.6575 17.2348 16.4248 17.4248L17.0573 18.1994ZM19.8985 13.2807L18.9112 13.1219C18.8636 13.418 18.9513 13.7198 19.1503 13.9442L19.8985 13.2807ZM19.8985 10.7194L19.1503 10.0559C18.9513 10.2803 18.8636 10.5822 18.9112 10.8782L19.8985 10.7194ZM17.0574 5.80074L16.4249 6.57525C16.6576 6.76534 16.9635 6.84068 17.2579 6.78044L17.0574 5.80074ZM14.84 4.51858L13.8913 4.8348C13.9863 5.11969 14.2042 5.34683 14.485 5.45344L14.84 4.51858ZM20.94 16.5164L20.074 16.0164L20.94 16.5164ZM20.7043 14.1895L19.9561 14.8529V14.8529L20.7043 14.1895ZM18.2485 18.4431L18.048 19.4228L18.2485 18.4431ZM20.3815 17.4837L21.2475 17.9837L20.3815 17.4837ZM14.4563 20.6325L15.405 20.9487L14.4563 20.6325ZM9.54461 20.6325L8.59593 20.9487L9.54461 20.6325ZM3.61942 17.4836L4.48545 16.9836H4.48545L3.61942 17.4836ZM5.75244 18.443L5.95292 19.4227H5.95292L5.75244 18.443ZM3.29659 14.1893L2.54838 13.5259H2.54838L3.29659 14.1893ZM3.06094 16.5163L2.19492 17.0163L3.06094 16.5163ZM5.75243 5.55701L5.55195 6.53671H5.55195L5.75243 5.55701ZM3.61942 6.51641L4.48545 7.01641L3.61942 6.51641ZM14.4563 3.36754L15.405 3.05132V3.05132L14.4563 3.36754ZM3.06094 7.48373L2.19492 6.98373L3.06094 7.48373ZM3.29659 9.81067L2.54838 10.4741H2.54838L3.29659 9.81067ZM20.7043 9.81067L19.9561 9.1472V9.1472L20.7043 9.81067ZM20.94 7.48373L20.074 7.98373L20.94 7.48373ZM20.3815 6.51641L21.2475 6.01641L20.3815 6.51641ZM18.2485 5.55701L18.449 6.53671L18.2485 5.55701ZM9.54461 3.36755L10.4933 3.68377V3.68377L9.54461 3.36755ZM14.0005 12C14.0005 13.1046 13.105 14 12.0005 14V16C14.2096 16 16.0005 14.2091 16.0005 12H14.0005ZM12.0005 14C10.8959 14 10.0005 13.1046 10.0005 12H8.00046C8.00046 14.2091 9.79132 16 12.0005 16V14ZM10.0005 12C10.0005 10.8954 10.8959 10 12.0005 10V8C9.79132 8 8.00046 9.79086 8.00046 12H10.0005ZM12.0005 10C13.105 10 14.0005 10.8954 14.0005 12H16.0005C16.0005 9.79086 14.2096 8 12.0005 8V10ZM11.442 3H12.5589V1H11.442V3ZM10.1096 4.8348L10.4933 3.68377L8.59593 3.05132L8.21225 4.20235L10.1096 4.8348ZM7.57603 6.57525C8.15378 6.10339 8.80769 5.7224 9.51595 5.45344L8.80592 3.58372C7.8935 3.93021 7.05267 4.42042 6.31091 5.02623L7.57603 6.57525ZM5.55195 6.53671L6.74299 6.78044L7.14395 4.82104L5.95291 4.57732L5.55195 6.53671ZM3.92697 7.98373L4.48545 7.01641L2.7534 6.01641L2.19492 6.98373L3.92697 7.98373ZM4.85061 10.0559L4.04479 9.1472L2.54838 10.4741L3.3542 11.3829L4.85061 10.0559ZM5.00046 12C5.00046 11.6175 5.03104 11.2429 5.08971 10.8782L3.1151 10.5606C3.0396 11.0299 3.00046 11.5107 3.00046 12H5.00046ZM5.08971 13.1218C5.03104 12.7571 5.00046 12.3825 5.00046 12H3.00046C3.00046 12.4893 3.0396 12.9701 3.1151 13.4394L5.08971 13.1218ZM4.04479 14.8528L4.85061 13.9441L3.3542 12.6171L2.54838 13.5259L4.04479 14.8528ZM4.48545 16.9836L3.92697 16.0163L2.19492 17.0163L2.7534 17.9836L4.48545 16.9836ZM6.74299 17.2196L5.55195 17.4633L5.95292 19.4227L7.14395 19.179L6.74299 17.2196ZM9.51595 18.5466C8.80769 18.2776 8.15378 17.8966 7.57603 17.4247L6.31091 18.9738C7.05267 19.5796 7.8935 20.0698 8.80592 20.4163L9.51595 18.5466ZM10.4933 20.3162L10.1096 19.1652L8.21225 19.7977L8.59593 20.9487L10.4933 20.3162ZM12.5589 21H11.442V23H12.5589V21ZM13.8913 19.1652L13.5076 20.3162L15.405 20.9487L15.7887 19.7977L13.8913 19.1652ZM16.4248 17.4248C15.847 17.8967 15.1932 18.2776 14.485 18.5466L15.195 20.4163C16.1074 20.0698 16.9481 19.5796 17.6899 18.9739L16.4248 17.4248ZM18.449 17.4634L17.2578 17.2197L16.8568 19.1791L18.048 19.4228L18.449 17.4634ZM20.074 16.0164L19.5155 16.9837L21.2475 17.9837L21.806 17.0164L20.074 16.0164ZM19.1503 13.9442L19.9561 14.8529L21.4525 13.526L20.6467 12.6172L19.1503 13.9442ZM19.0005 12C19.0005 12.3825 18.9699 12.7572 18.9112 13.1219L20.8858 13.4396C20.9613 12.9702 21.0005 12.4893 21.0005 12H19.0005ZM18.9112 10.8782C18.9699 11.2429 19.0005 11.6175 19.0005 12H21.0005C21.0005 11.5107 20.9613 11.0299 20.8858 10.5606L18.9112 10.8782ZM19.9561 9.1472L19.1503 10.0559L20.6467 11.3829L21.4525 10.4741L19.9561 9.1472ZM19.5155 7.01641L20.074 7.98373L21.806 6.98373L21.2475 6.01641L19.5155 7.01641ZM17.2579 6.78044L18.449 6.53671L18.048 4.57732L16.857 4.82104L17.2579 6.78044ZM14.485 5.45344C15.1932 5.7224 15.8471 6.10339 16.4249 6.57525L17.69 5.02623C16.9483 4.42042 16.1074 3.93021 15.195 3.58372L14.485 5.45344ZM13.5076 3.68377L13.8913 4.8348L15.7887 4.20235L15.405 3.05132L13.5076 3.68377ZM21.806 17.0164C22.4517 15.8981 22.3093 14.4921 21.4525 13.526L19.9561 14.8529C20.2417 15.175 20.2892 15.6436 20.074 16.0164L21.806 17.0164ZM18.048 19.4228C19.3131 19.6817 20.6019 19.102 21.2475 17.9837L19.5155 16.9837C19.3003 17.3565 18.8707 17.5497 18.449 17.4634L18.048 19.4228ZM12.5589 23C13.8502 23 14.9967 22.1737 15.405 20.9487L13.5076 20.3162C13.3715 20.7246 12.9894 21 12.5589 21V23ZM8.59593 20.9487C9.00427 22.1737 10.1507 23 11.442 23V21C11.0115 21 10.6294 20.7246 10.4933 20.3162L8.59593 20.9487ZM2.7534 17.9836C3.39904 19.1019 4.68784 19.6816 5.95292 19.4227L5.55196 17.4633C5.13026 17.5496 4.70066 17.3564 4.48545 16.9836L2.7534 17.9836ZM2.54838 13.5259C1.69165 14.492 1.54927 15.898 2.19492 17.0163L3.92697 16.0163C3.71175 15.6435 3.75921 15.1749 4.04479 14.8528L2.54838 13.5259ZM5.95291 4.57732C4.68784 4.31844 3.39904 4.89812 2.7534 6.01641L4.48545 7.01641C4.70066 6.64365 5.13026 6.45042 5.55195 6.53671L5.95291 4.57732ZM12.5589 3C12.9894 3 13.3715 3.27543 13.5076 3.68377L15.405 3.05132C14.9967 1.82629 13.8502 1 12.5589 1V3ZM2.19492 6.98373C1.54927 8.10202 1.69165 9.50799 2.54838 10.4741L4.04479 9.1472C3.75921 8.82515 3.71175 8.35649 3.92697 7.98373L2.19492 6.98373ZM21.4525 10.4741C22.3093 9.50799 22.4517 8.10202 21.806 6.98373L20.074 7.98373C20.2892 8.35649 20.2417 8.82515 19.9561 9.1472L21.4525 10.4741ZM21.2475 6.01641C20.6019 4.89812 19.3131 4.31844 18.048 4.57732L18.449 6.53671C18.8707 6.45042 19.3003 6.64365 19.5155 7.01641L21.2475 6.01641ZM11.442 1C10.1507 1 9.00427 1.82629 8.59593 3.05132L10.4933 3.68377C10.6294 3.27543 11.0115 3 11.442 3V1Z" fill="#131316"/>
</svg>
