<svg width="16" height="15" viewBox="0 0 16 15" fill="none" xmlns="http://www.w3.org/2000/svg">
<path d="M3.14258 7.50036V10.4754C3.14258 11.6655 3.14258 12.2605 3.37419 12.7151C3.57792 13.1149 3.903 13.44 4.30285 13.6438C4.75741 13.8754 5.35247 13.8754 6.54258 13.8754H9.65925C10.8494 13.8754 11.4444 13.8754 11.899 13.6438C12.2988 13.44 12.6239 13.1149 12.8276 12.7151C13.0592 12.2605 13.0592 11.6655 13.0592 10.4754V7.50036M15.1842 5.37536L9.8502 2.17493C9.21418 1.79333 8.89618 1.60252 8.5567 1.52797C8.25642 1.46203 7.94541 1.46203 7.64512 1.52797C7.30565 1.60252 6.98764 1.79332 6.35163 2.17493L1.01758 5.37536" stroke="#007BA7" stroke-width="1.41667" stroke-linecap="round" stroke-linejoin="round"/>
</svg>
