<svg width="20" height="22" viewBox="0 0 20 22" fill="none" xmlns="http://www.w3.org/2000/svg">
<path d="M17 5.5L18.5 7M8.992 1.01482C4.81041 1.25968 1.5 4.51638 1.5 9.00001C1.5 11.8644 3.38608 13.8508 5.53649 16.1156C6.88736 17.5383 8.34254 19.0709 9.5 21C10.6575 19.0709 12.1126 17.5383 13.4635 16.1156C15.1323 14.3581 16.6418 12.7682 17.2344 10.8056M9.01461 6.03907C7.58857 6.27107 6.5 7.50841 6.5 9.00001C6.5 10.6569 7.84315 12 9.5 12C10.9916 12 12.2289 10.9114 12.4609 9.48539M17.5 3.5C17.5 4.88071 16.3807 6 15 6C13.6193 6 12.5 4.88071 12.5 3.5C12.5 2.11929 13.6193 1 15 1C16.3807 1 17.5 2.11929 17.5 3.5Z" stroke="white" stroke-width="2" stroke-linecap="round" stroke-linejoin="round"/>
</svg>
