<svg width="80" height="80" viewBox="0 0 80 80" fill="none" xmlns="http://www.w3.org/2000/svg">
<path d="M0 40C0 17.9086 17.9086 0 40 0C62.0914 0 80 17.9086 80 40C80 62.0914 62.0914 80 40 80C17.9086 80 0 62.0914 0 40Z" fill="#01AE66"/>
<path d="M57.9591 31.8341L35.9591 53.8341C35.7675 54.0264 35.5398 54.179 35.2891 54.2831C35.0384 54.3872 34.7697 54.4408 34.4982 54.4408C34.2268 54.4408 33.958 54.3872 33.7073 54.2831C33.4566 54.179 33.2289 54.0264 33.0373 53.8341L23.4123 44.2091C23.2204 44.0173 23.0682 43.7895 22.9644 43.5388C22.8606 43.2882 22.8071 43.0195 22.8071 42.7482C22.8071 42.4769 22.8606 42.2082 22.9644 41.9575C23.0682 41.7069 23.2204 41.4791 23.4123 41.2873C23.6041 41.0954 23.8319 40.9432 24.0826 40.8394C24.3332 40.7356 24.6019 40.6821 24.8732 40.6821C25.1445 40.6821 25.4132 40.7356 25.6639 40.8394C25.9145 40.9432 26.1423 41.0954 26.3341 41.2873L34.4999 49.453L55.0407 28.9157C55.4282 28.5282 55.9537 28.3105 56.5016 28.3105C57.0496 28.3105 57.5751 28.5282 57.9626 28.9157C58.35 29.3032 58.5677 29.8287 58.5677 30.3766C58.5677 30.9246 58.35 31.4501 57.9626 31.8376L57.9591 31.8341Z" fill="white"/>
</svg>
